<svg width="16" height="17" viewBox="0 0 16 17" fill="none" xmlns="http://www.w3.org/2000/svg">
<path fill-rule="evenodd" clip-rule="evenodd" d="M4.99992 1.33398C5.36811 1.33398 5.66658 1.63246 5.66658 2.00065V2.33399L10.3333 2.334V2.00065C10.3333 1.63246 10.6317 1.33398 10.9999 1.33398C11.3681 1.33398 11.6666 1.63246 11.6666 2.00065V2.334L12.4999 2.33401C13.9727 2.33401 15.1666 3.52792 15.1666 5.00067V13.0006C15.1666 14.4734 13.9727 15.6673 12.4999 15.6673L3.49992 15.6673C2.02716 15.6673 0.833252 14.4734 0.833252 13.0007L0.833252 6.50078L0.833252 5.00065C0.833252 3.52789 2.02716 2.33398 3.49992 2.33399L4.33325 2.33399V2.00065C4.33325 1.63246 4.63173 1.33398 4.99992 1.33398ZM4.33325 3.66732L3.49992 3.66732C2.76354 3.66732 2.16659 4.26427 2.16659 5.00065V5.83398H13.8333V5.00067C13.8333 4.26429 13.2363 3.66734 12.4999 3.66734L11.6666 3.66734V4.00065C11.6666 4.36884 11.3681 4.66732 10.9999 4.66732C10.6317 4.66732 10.3333 4.36884 10.3333 4.00065V3.66734L5.66658 3.66733V4.00065C5.66658 4.36884 5.36811 4.66732 4.99992 4.66732C4.63173 4.66732 4.33325 4.36884 4.33325 4.00065V3.66732ZM13.8333 7.16732H2.16659L2.16659 13.0007C2.16659 13.737 2.76354 14.334 3.49992 14.334L12.4999 14.334C13.2363 14.334 13.8333 13.737 13.8333 13.0006V7.16732Z" fill="#787A80"/>
</svg>
