<svg width="16" height="17" viewBox="0 0 16 17" fill="none" xmlns="http://www.w3.org/2000/svg">
<path d="M8.66675 4.83268C8.66675 4.46449 8.36827 4.16602 8.00008 4.16602C7.63189 4.16602 7.33341 4.46449 7.33341 4.83268V8.49935C7.33341 8.67616 7.40365 8.84573 7.52868 8.97075L9.52868 10.9708C9.78903 11.2311 10.2111 11.2311 10.4715 10.9708C10.7318 10.7104 10.7318 10.2883 10.4715 10.0279L8.66675 8.22321V4.83268Z" fill="#787A80"/>
<path fill-rule="evenodd" clip-rule="evenodd" d="M8.00008 1.16602C3.94999 1.16602 0.666748 4.44926 0.666748 8.49935C0.666748 12.5494 3.94999 15.8327 8.00008 15.8327C12.0502 15.8327 15.3334 12.5494 15.3334 8.49935C15.3334 4.44926 12.0502 1.16602 8.00008 1.16602ZM2.00008 8.49935C2.00008 5.18564 4.68637 2.49935 8.00008 2.49935C11.3138 2.49935 14.0001 5.18564 14.0001 8.49935C14.0001 11.8131 11.3138 14.4993 8.00008 14.4993C4.68637 14.4993 2.00008 11.8131 2.00008 8.49935Z" fill="#787A80"/>
</svg>
