<svg width="16" height="17" viewBox="0 0 16 17" fill="none" xmlns="http://www.w3.org/2000/svg">
<path fill-rule="evenodd" clip-rule="evenodd" d="M5.33325 9.50065C5.33325 9.13246 5.63173 8.83398 5.99992 8.83398H9.99992C10.3681 8.83398 10.6666 9.13246 10.6666 9.50065C10.6666 9.86884 10.3681 10.1673 9.99992 10.1673H5.99992C5.63173 10.1673 5.33325 9.86884 5.33325 9.50065Z" fill="#424551"/>
<path fill-rule="evenodd" clip-rule="evenodd" d="M5.33325 12.0007C5.33325 11.6325 5.63173 11.334 5.99992 11.334H7.99992C8.36811 11.334 8.66659 11.6325 8.66659 12.0007C8.66659 12.3688 8.36811 12.6673 7.99992 12.6673H5.99992C5.63173 12.6673 5.33325 12.3688 5.33325 12.0007Z" fill="#424551"/>
<path fill-rule="evenodd" clip-rule="evenodd" d="M6.02853 1.52925C6.15355 1.40422 6.32312 1.33398 6.49993 1.33398H10.9999C12.4727 1.33398 13.6666 2.52789 13.6666 4.00065L13.6666 13.0007C13.6666 14.4734 12.4727 15.6673 10.9999 15.6673H4.99992C3.52716 15.6673 2.33325 14.4734 2.33325 13.0006L2.33327 5.50065C2.33327 5.32384 2.40351 5.15427 2.52853 5.02925L6.02853 1.52925ZM6.33325 3.11015V5.33398H4.10941L6.33325 3.11015ZM3.6666 6.66732L3.66659 13.0006C3.66658 13.737 4.26354 14.334 4.99992 14.334H10.9999C11.7363 14.334 12.3333 13.737 12.3333 13.0007L12.3333 4.00065C12.3333 3.26427 11.7363 2.66732 10.9999 2.66732H7.66658V6.00065C7.66658 6.36884 7.3681 6.66732 6.99991 6.66732H3.6666Z" fill="#424551"/>
</svg>
