<svg width="48" height="48" viewBox="0 0 48 48" fill="none" xmlns="http://www.w3.org/2000/svg">
<g clip-path="url(#clip0_68809_2381)">
<path d="M32.8018 23.6183C32.6276 23.444 32.3858 23.3438 32.1394 23.3438C31.893 23.3438 31.6513 23.4439 31.477 23.6183C31.3027 23.7927 31.2024 24.0344 31.2024 24.2808C31.2024 24.5272 31.3025 24.7689 31.477 24.9431C31.6513 25.1174 31.893 25.2178 32.1394 25.2178C32.3858 25.2178 32.6266 25.1176 32.8018 24.9431C32.976 24.7689 33.0765 24.5272 33.0765 24.2808C33.0765 24.0344 32.9761 23.7926 32.8018 23.6183Z" fill="#FF3F3A"/>
<path d="M38.9807 2.54102H8.9955C8.47809 2.54102 8.05847 2.96064 8.05847 3.47805V18.4706C8.05847 18.988 8.47809 19.4077 8.9955 19.4077H23.0511V23.3432H7.04353C6.52612 23.3432 6.1065 23.7628 6.1065 24.2802V31.5891H0.937031C0.419625 31.5891 0 32.0087 0 32.5261V44.5202C0 45.0376 0.419625 45.4572 0.937031 45.4572H12.9311C13.4485 45.4572 13.8682 45.0376 13.8682 44.5202V32.5261C13.8682 32.0087 13.4485 31.5891 12.9311 31.5891H7.98056V25.2173H23.0511V31.5891H18.003C17.4856 31.5891 17.066 32.0087 17.066 32.5261V44.5202C17.066 45.0376 17.4856 45.4572 18.003 45.4572H29.9971C30.5145 45.4572 30.9341 45.0376 30.9341 44.5202V32.5261C30.9341 32.0086 30.5145 31.5891 29.9971 31.5891H24.9252V25.2173H28.6733C29.1908 25.2173 29.6104 24.7976 29.6104 24.2802C29.6104 23.7628 29.1908 23.3432 28.6733 23.3432H24.9252V19.4077H38.9808C39.4982 19.4077 39.9178 18.988 39.9178 18.4706V3.47805C39.9177 2.96055 39.4981 2.54102 38.9807 2.54102ZM11.9941 33.4631V43.5831H1.87406V33.4631H11.9941ZM29.06 33.4631V43.5831H18.94V33.4631H29.06ZM38.0437 17.5335H9.93253V8.1632H16.2803C16.7978 8.1632 17.2174 7.74358 17.2174 7.22617C17.2174 6.70877 16.7978 6.28914 16.2803 6.28914H9.93253V4.41508H38.0436V17.5335H38.0437Z" fill="#FF3F3A"/>
<path d="M47.0637 31.5896H41.8704V24.2808C41.8704 23.7634 41.4508 23.3438 40.9334 23.3438H35.7954C35.278 23.3438 34.8584 23.7634 34.8584 24.2808C34.8584 24.7982 35.278 25.2178 35.7954 25.2178H39.9963V31.5896H35.0696C34.5522 31.5896 34.1326 32.0092 34.1326 32.5267V44.5207C34.1326 45.0382 34.5522 45.4578 35.0696 45.4578H47.0637C47.5811 45.4578 48.0007 45.0382 48.0007 44.5207V32.5267C48.0007 32.0092 47.5811 31.5896 47.0637 31.5896ZM46.1267 43.5836H36.0066V33.4637H46.1267V43.5836Z" fill="#FF3F3A"/>
<path d="M20.8845 6.56561C20.7101 6.39133 20.4683 6.29102 20.222 6.29102C19.9746 6.29102 19.7339 6.39114 19.5586 6.56561C19.3844 6.73989 19.2849 6.98167 19.2849 7.22805C19.2849 7.47452 19.3843 7.7162 19.5586 7.89039C19.7338 8.06467 19.9756 8.16508 20.222 8.16508C20.4685 8.16508 20.7093 8.06486 20.8845 7.89039C21.0588 7.7162 21.1591 7.47442 21.1591 7.22805C21.1591 6.98167 21.0589 6.73989 20.8845 6.56561Z" fill="#FF3F3A"/>
</g>
<defs>
<clipPath id="clip0_68809_2381">
<rect width="48" height="48" fill="white"/>
</clipPath>
</defs>
</svg>
