<svg width="16" height="16" viewBox="0 0 16 16" fill="none" xmlns="http://www.w3.org/2000/svg">
<path fill-rule="evenodd" clip-rule="evenodd" d="M5.66659 1.94857C5.1143 1.94857 4.66659 2.39628 4.66659 2.94857V13.0527C4.66659 13.605 5.1143 14.0527 5.66659 14.0527H10.3333C10.8855 14.0527 11.3333 13.605 11.3333 13.0527V2.94857C11.3333 2.39628 10.8855 1.94857 10.3333 1.94857H10.2777L10.1153 2.3382C10.0118 2.58661 9.76904 2.74842 9.49992 2.74842H6.49992C6.2308 2.74842 5.98807 2.58661 5.88455 2.3382L5.72217 1.94857H5.66659ZM3.33325 2.94857C3.33325 1.6599 4.37792 0.615234 5.66659 0.615234H10.3333C11.6219 0.615234 12.6666 1.6599 12.6666 2.94857V13.0527C12.6666 14.3414 11.6219 15.3861 10.3333 15.3861H5.66659C4.37792 15.3861 3.33325 14.3414 3.33325 13.0527V2.94857Z" fill="white"/>
</svg>
