<svg width="16" height="17" viewBox="0 0 16 17" fill="none" xmlns="http://www.w3.org/2000/svg">
<path fill-rule="evenodd" clip-rule="evenodd" d="M10.7119 7.44002C11.4102 7.97368 11.4102 9.02507 10.7119 9.55873L7.65865 11.8924C6.78126 12.5629 5.51566 11.9373 5.51566 10.833V6.16575C5.51566 5.06144 6.78125 4.43581 7.65865 5.1064L10.7119 7.44002ZM9.90228 8.49938L6.84899 6.16575L6.84899 10.833L9.90228 8.49938Z" fill="#424551"/>
<path fill-rule="evenodd" clip-rule="evenodd" d="M8.00008 2.49935C4.68637 2.49935 2.00008 5.18564 2.00008 8.49935C2.00008 11.8131 4.68637 14.4993 8.00008 14.4993C11.3138 14.4993 14.0001 11.8131 14.0001 8.49935C14.0001 5.18564 11.3138 2.49935 8.00008 2.49935ZM0.666748 8.49935C0.666748 4.44926 3.94999 1.16602 8.00008 1.16602C12.0502 1.16602 15.3334 4.44926 15.3334 8.49935C15.3334 12.5494 12.0502 15.8327 8.00008 15.8327C3.94999 15.8327 0.666748 12.5494 0.666748 8.49935Z" fill="#424551"/>
</svg>
