<svg width="20" height="20" viewBox="0 0 20 20" fill="none" xmlns="http://www.w3.org/2000/svg">
<path fill-rule="evenodd" clip-rule="evenodd" d="M10.0001 2.70768C8.38924 2.70768 7.08341 4.01352 7.08341 5.62435C7.08341 7.23518 8.38924 8.54102 10.0001 8.54102C11.6109 8.54102 12.9167 7.23518 12.9167 5.62435C12.9167 4.01352 11.6109 2.70768 10.0001 2.70768ZM5.41674 5.62435C5.41674 3.09304 7.46877 1.04102 10.0001 1.04102C12.5314 1.04102 14.5834 3.09304 14.5834 5.62435C14.5834 8.15565 12.5314 10.2077 10.0001 10.2077C7.46877 10.2077 5.41674 8.15565 5.41674 5.62435Z" fill="#424551"/>
<path fill-rule="evenodd" clip-rule="evenodd" d="M5.08679 12.7077C4.50902 12.7077 4.05743 12.989 3.87412 13.3932C3.62041 13.9526 3.39065 14.6187 3.33644 15.2503C3.3122 15.5327 3.42994 15.7408 3.59218 15.8416C4.44981 16.3743 6.43707 17.291 10.0001 17.291C13.5631 17.291 15.5503 16.3743 16.408 15.8416C16.5702 15.7408 16.6879 15.5327 16.6637 15.2503C16.6095 14.6187 16.3797 13.9526 16.126 13.3932C15.9427 12.989 15.4911 12.7077 14.9134 12.7077H5.08679ZM2.35626 12.7048C2.86288 11.5877 3.99416 11.041 5.08679 11.041H14.9134C16.006 11.041 17.1373 11.5877 17.6439 12.7048C17.9349 13.3464 18.2471 14.2089 18.3243 15.1078C18.3945 15.9263 18.0543 16.7809 17.2874 17.2573C16.1595 17.958 13.8664 18.9577 10.0001 18.9577C6.13374 18.9577 3.84066 17.958 2.71271 17.2573C1.94583 16.7809 1.60562 15.9263 1.67588 15.1078C1.75303 14.2089 2.06527 13.3464 2.35626 12.7048Z" fill="#424551"/>
</svg>
